<svg width="84" height="84" viewBox="0 0 84 84" fill="none" xmlns="http://www.w3.org/2000/svg">
<path d="M42 84C53.1391 84 63.822 79.575 71.6985 71.6985C79.575 63.822 84 53.1391 84 42C84 30.8609 79.575 20.178 71.6985 12.3015C63.822 4.42499 53.1391 0 42 0C30.8609 0 20.178 4.42499 12.3015 12.3015C4.42499 20.178 0 30.8609 0 42C0 53.1391 4.42499 63.822 12.3015 71.6985C20.178 79.575 30.8609 84 42 84ZM50.318 53.3367L26.6437 62.4422C23.4609 63.6727 20.3273 60.5391 21.5578 57.3563L30.6633 33.682C31.2047 32.2875 32.2875 31.2047 33.682 30.6633L57.3563 21.5578C60.5391 20.3273 63.6727 23.4609 62.4422 26.6437L53.3367 50.318C52.8117 51.7125 51.7125 52.7953 50.318 53.3367ZM47.25 42C47.25 40.6076 46.6969 39.2723 45.7123 38.2877C44.7277 37.3031 43.3924 36.75 42 36.75C40.6076 36.75 39.2723 37.3031 38.2877 38.2877C37.3031 39.2723 36.75 40.6076 36.75 42C36.75 43.3924 37.3031 44.7277 38.2877 45.7123C39.2723 46.6969 40.6076 47.25 42 47.25C43.3924 47.25 44.7277 46.6969 45.7123 45.7123C46.6969 44.7277 47.25 43.3924 47.25 42Z" fill="#394130"/>
</svg>
