<svg width="105" height="131" viewBox="0 0 105 131" fill="none" xmlns="http://www.w3.org/2000/svg">
<path d="M58.9805 128.056C73.0078 111.588 105 71.6726 105 49.2525C105 22.061 81.4844 0 52.5 0C23.5156 0 0 22.061 0 49.2525C0 71.6726 31.9922 111.588 46.0195 128.056C49.3828 131.981 55.6172 131.981 58.9805 128.056ZM52.5 32.835C57.1413 32.835 61.5925 34.5647 64.8744 37.6435C68.1563 40.7224 70 44.8983 70 49.2525C70 53.6066 68.1563 57.7825 64.8744 60.8614C61.5925 63.9403 57.1413 65.6699 52.5 65.6699C47.8587 65.6699 43.4075 63.9403 40.1256 60.8614C36.8437 57.7825 35 53.6066 35 49.2525C35 44.8983 36.8437 40.7224 40.1256 37.6435C43.4075 34.5647 47.8587 32.835 52.5 32.835Z" fill="#FFF6DE"/>
</svg>
