<svg width="143" height="257" viewBox="0 0 143 257" fill="none" xmlns="http://www.w3.org/2000/svg">
<path d="M0 72.2812C0 53.1111 7.53301 34.7261 20.9419 21.1707C34.3507 7.61532 52.537 0 71.5 0C90.463 0 108.649 7.61532 122.058 21.1707C135.467 34.7261 143 53.1111 143 72.2812C143 91.4514 135.467 109.836 122.058 123.392C108.649 136.947 90.463 144.562 71.5 144.562C52.537 144.562 34.3507 136.947 20.9419 123.392C7.53301 109.836 0 91.4514 0 72.2812ZM71.5 40.1562C75.8694 40.1562 79.4444 36.5422 79.4444 32.125C79.4444 27.7078 75.8694 24.0937 71.5 24.0937C45.184 24.0937 23.8333 45.6777 23.8333 72.2812C23.8333 76.6984 27.4083 80.3125 31.7778 80.3125C36.1472 80.3125 39.7222 76.6984 39.7222 72.2812C39.7222 54.5623 53.9726 40.1562 71.5 40.1562ZM55.6111 240.937V159.169C60.775 160.123 66.0878 160.625 71.5 160.625C76.9122 160.625 82.225 160.123 87.3889 159.169V240.937C87.3889 249.822 80.2885 257 71.5 257C62.7115 257 55.6111 249.822 55.6111 240.937Z" fill="#071F19"/>
</svg>
