<svg width="164" height="79" viewBox="0 0 164 79" fill="none" xmlns="http://www.w3.org/2000/svg">
<path d="M164 79C164 68.6256 161.879 58.3527 157.758 48.768C153.637 39.1833 147.597 30.4744 139.983 23.1386C132.368 15.8027 123.329 9.98364 113.38 6.01352C103.431 2.04339 92.7684 -4.53481e-07 82 0C71.2316 4.53481e-07 60.5687 2.0434 50.62 6.01352C40.6713 9.98364 31.6316 15.8027 24.0172 23.1386C16.4028 30.4744 10.3628 39.1833 6.24188 48.768C2.12099 58.3527 -9.41403e-07 68.6256 0 79L51.6149 79C51.6149 75.1558 52.4009 71.3492 53.9279 67.7975C55.4549 64.2459 57.693 61.0189 60.5145 58.3006C63.336 55.5823 66.6857 53.426 70.3721 51.9549C74.0586 50.4838 78.0098 49.7266 82 49.7266C85.9902 49.7266 89.9414 50.4838 93.6279 51.9549C97.3143 53.426 100.664 55.5823 103.485 58.3006C106.307 61.0189 108.545 64.2459 110.072 67.7975C111.599 71.3492 112.385 75.1558 112.385 79H164Z" fill="#FFF6DE"/>
</svg>
