<svg width="151" height="94" viewBox="0 0 151 94" fill="none" xmlns="http://www.w3.org/2000/svg">
<path d="M99.0966 5.875H69.5799C66.3146 5.875 63.6766 8.50039 63.6766 11.75V23.5C63.6766 26.7496 66.3146 29.375 69.5799 29.375H139.203C139.977 29.375 140.734 29.0629 141.287 28.5121L150.142 19.6996C151.286 18.5613 151.286 16.6887 150.142 15.5504L141.287 6.73789C140.734 6.18711 139.977 5.875 139.203 5.875H110.903C110.903 2.62539 108.265 0 105 0C101.735 0 99.0966 2.62539 99.0966 5.875ZM146.323 47C146.323 43.7504 143.685 41.125 140.42 41.125H110.903V35.25H99.0966V41.125H70.7975C70.0227 41.125 69.2663 41.4371 68.7129 41.9879L59.8578 50.8004C58.7141 51.9387 58.7141 53.8113 59.8578 54.9496L68.7129 63.7621C69.2663 64.3129 70.0227 64.625 70.7975 64.625H140.42C143.685 64.625 146.323 61.9996 146.323 58.75V47ZM110.903 88.125V70.5H99.0966V88.125C99.0966 91.3746 101.735 94 105 94C108.265 94 110.903 91.3746 110.903 88.125Z" fill="#FFF6DE"/>
<path d="M22.9281 59.9748C24.3506 61.3417 26.6608 61.3417 28.0833 59.9748L49.9331 38.9789C51.3556 37.612 51.3556 35.3921 49.9331 34.0252C48.5106 32.6583 46.2004 32.6583 44.7779 34.0252L25.5 52.5497L6.22208 34.0361C4.79956 32.6692 2.4894 32.6692 1.06689 34.0361C-0.355629 35.403 -0.355629 37.6229 1.06689 38.9898L22.9167 59.9857L22.9281 59.9748Z" fill="#FFF6DE"/>
</svg>
