<svg width="135" height="133" viewBox="0 0 135 133" fill="none" xmlns="http://www.w3.org/2000/svg">
<path d="M46.0546 11.9007C50.6679 4.48585 58.7874 0 67.4868 0C76.1862 0 84.3057 4.48585 88.919 11.9007L99.0947 28.1817L106.212 24.0653C108.427 22.7723 111.195 22.957 113.225 24.5138C115.255 26.0707 116.151 28.7094 115.492 31.1898L109.323 54.2524C108.427 57.6299 104.947 59.6354 101.573 58.7382L78.5324 52.5636C76.0544 51.9039 74.2355 49.8193 73.8928 47.2861C73.5501 44.7529 74.7891 42.2461 77.0035 40.9795L84.4902 36.652L74.6045 20.846C73.0755 18.392 70.3866 16.8879 67.4868 16.8879C64.587 16.8879 61.8981 18.392 60.3691 20.846L55.7558 28.2345C53.3305 32.1398 48.2163 33.38 44.262 31.0051C40.2286 28.5775 38.9369 23.3 41.4413 19.2891L46.0546 11.9007ZM113.225 66.4697C117.179 64.0948 122.293 65.335 124.718 69.2404L131.151 79.5578C133.629 83.5423 134.947 88.1073 135 92.8043C135.079 106.816 123.743 118.242 109.745 118.242L84.3584 118.215V126.659C84.3584 129.219 82.8294 131.541 80.4569 132.517C78.0843 133.494 75.369 132.966 73.5501 131.145L56.6785 114.257C54.2004 111.777 54.2004 107.766 56.6785 105.312L73.5501 88.424C75.369 86.6032 78.0843 86.0755 80.4569 87.0518C82.8294 88.0282 84.3584 90.3502 84.3584 92.9098V101.354H109.719C114.358 101.354 118.128 97.554 118.102 92.9098C118.102 91.353 117.653 89.8225 116.836 88.5031L110.404 78.1857C107.9 74.1748 109.165 68.8973 113.225 66.4697ZM17.1093 58.2896L9.49069 53.8829C7.27629 52.59 6.03728 50.1096 6.37999 47.5764C6.72269 45.0432 8.54166 42.9586 11.0197 42.2989L34.06 36.1243C37.4343 35.2271 40.914 37.2325 41.8104 40.6101L47.979 63.6463C48.6381 66.1267 47.7418 68.739 45.7119 70.3223C43.682 71.9055 40.914 72.0638 38.6997 70.7708L31.7138 66.7336L18.1374 88.4767C17.3202 89.7961 16.872 91.3266 16.872 92.8834C16.8457 97.5276 20.6154 101.327 25.2551 101.327H33.7436C38.4097 101.327 42.1794 105.101 42.1794 109.771C42.1794 114.442 38.4097 118.215 33.7436 118.215H25.2551C11.2569 118.215 -0.0786743 106.816 0.000411318 92.7779C0.0267732 88.0809 1.34487 83.5159 3.84925 79.5314L17.1093 58.2896Z" fill="#FFF6DE"/>
</svg>
