<svg width="624" height="285" viewBox="0 0 624 285" fill="none" xmlns="http://www.w3.org/2000/svg">
<path d="M5.07184 279.785C6.15288 266.813 11.0439 253.739 14.8664 241.44C24.2122 211.371 35.3337 181.472 49.4601 153.289C70.9048 110.506 100.724 70.3996 135.84 37.8377C154.387 20.6397 174.562 10.1972 199.505 6.36996C217.864 3.55295 237.94 4.40155 255.355 11.2673C272.463 18.0119 281.345 32.5665 289.324 48.2575C307.885 84.7615 319.462 127.033 366.013 135.992C404.844 143.465 441.847 126.719 473.962 106.817C502.955 88.8495 540.267 55.5813 576.701 56.5933C612.895 57.5987 618.38 112.364 618.38 139.118" stroke="#FFF6DE" stroke-width="10" stroke-linecap="round" stroke-dasharray="16 25"/>
</svg>
