<svg width="180" height="238" viewBox="0 0 180 238" fill="none" xmlns="http://www.w3.org/2000/svg">
<rect width="154" height="135" rx="10" transform="matrix(-1 0 0 1 167 103)" fill="#2D8120"/>
<rect width="154" height="142" rx="16" transform="matrix(-1 0 0 1 167 0)" fill="#2D8120"/>
<path d="M13 41H28V62H151V50H167V95.5L13 90V41Z" fill="#25681A"/>
<rect width="180" height="46" rx="9" transform="matrix(-1 0 0 1 180 80)" fill="#2D8120"/>
<path fill-rule="evenodd" clip-rule="evenodd" d="M83.1061 80C88.2358 85.5 111.034 92.5 123.574 93.5C142.657 95.022 168.763 95.1665 179.982 94.5011C179.994 94.3356 180 94.1685 180 94L180 87C180 83.134 176.866 80 173 80L83 80C83.037 80.0291 83.0699 80.0318 83.1061 80Z" fill="#41AE30"/>
<rect width="123" height="48" rx="8" transform="matrix(-1 0 0 1 151 21)" fill="#0F0101"/>
<path d="M68.07 221.18C67.81 221.18 67.56 221.12 67.32 221C67.1 220.88 66.96 220.7 66.9 220.46L60.6 200.12C60.58 200.06 60.57 199.99 60.57 199.91C60.57 199.75 60.63 199.61 60.75 199.49C60.87 199.35 61.02 199.25 61.2 199.19C61.38 199.11 61.56 199.07 61.74 199.07C61.92 199.07 62.08 199.11 62.22 199.19C62.36 199.27 62.46 199.4 62.52 199.58L68.07 218L73.59 199.58C73.63 199.4 73.72 199.27 73.86 199.19C74 199.11 74.16 199.07 74.34 199.07C74.52 199.07 74.7 199.11 74.88 199.19C75.06 199.27 75.21 199.37 75.33 199.49C75.47 199.61 75.54 199.76 75.54 199.94C75.54 199.96 75.53 199.99 75.51 200.03C75.51 200.05 75.5 200.08 75.48 200.12L69.27 220.46C69.19 220.7 69.03 220.88 68.79 221C68.57 221.12 68.33 221.18 68.07 221.18ZM78.9633 202.61C78.6033 202.61 78.2833 202.49 78.0033 202.25C77.7433 201.99 77.6133 201.69 77.6133 201.35C77.6133 201.01 77.7433 200.72 78.0033 200.48C78.2833 200.24 78.6033 200.12 78.9633 200.12C79.3233 200.12 79.6333 200.24 79.8933 200.48C80.1533 200.72 80.2833 201.01 80.2833 201.35C80.2833 201.69 80.1533 201.99 79.8933 202.25C79.6333 202.49 79.3233 202.61 78.9633 202.61ZM78.9333 221C78.6733 221 78.4433 220.92 78.2433 220.76C78.0633 220.6 77.9733 220.42 77.9733 220.22V207.56C77.9733 207.32 78.0633 207.14 78.2433 207.02C78.4433 206.88 78.6733 206.81 78.9333 206.81C79.2133 206.81 79.4433 206.88 79.6233 207.02C79.8233 207.14 79.9233 207.32 79.9233 207.56V220.22C79.9233 220.42 79.8233 220.6 79.6233 220.76C79.4433 220.92 79.2133 221 78.9333 221ZM88.4269 221.21C87.5069 221.21 86.6369 220.95 85.8169 220.43C84.9969 219.89 84.3369 219.18 83.8369 218.3C83.3569 217.42 83.1169 216.49 83.1169 215.51V212.27C83.1169 211.23 83.3569 210.29 83.8369 209.45C84.3369 208.59 84.9969 207.91 85.8169 207.41C86.6369 206.89 87.5369 206.63 88.5169 206.63C89.4969 206.63 90.3169 206.87 90.9769 207.35C91.6569 207.81 92.1569 208.33 92.4769 208.91V198.86C92.4769 198.62 92.5769 198.44 92.7769 198.32C92.9769 198.18 93.2069 198.11 93.4669 198.11C93.7669 198.11 93.9969 198.18 94.1569 198.32C94.3369 198.44 94.4269 198.62 94.4269 198.86V220.22C94.4269 220.42 94.3369 220.6 94.1569 220.76C93.9969 220.92 93.7669 221 93.4669 221C93.2269 221 93.0069 220.92 92.8069 220.76C92.6269 220.6 92.5369 220.42 92.5369 220.22V218.9C92.2369 219.52 91.7069 220.06 90.9469 220.52C90.2069 220.98 89.3669 221.21 88.4269 221.21ZM88.7869 219.41C89.5069 219.41 90.1369 219.23 90.6769 218.87C91.2369 218.49 91.6769 218.07 91.9969 217.61C92.3169 217.13 92.4769 216.74 92.4769 216.44V212.27C92.4769 211.45 92.2969 210.76 91.9369 210.2C91.5769 209.64 91.1169 209.21 90.5569 208.91C89.9969 208.59 89.4169 208.43 88.8169 208.43C88.1369 208.43 87.5169 208.62 86.9569 209C86.3969 209.36 85.9469 209.83 85.6069 210.41C85.2669 210.99 85.0969 211.61 85.0969 212.27V215.51C85.0969 216.17 85.2669 216.8 85.6069 217.4C85.9469 218 86.3969 218.49 86.9569 218.87C87.5169 219.23 88.1269 219.41 88.7869 219.41ZM99.1481 221C98.8881 221 98.6581 220.92 98.4581 220.76C98.2781 220.6 98.1881 220.42 98.1881 220.22V207.56C98.1881 207.32 98.2781 207.14 98.4581 207.02C98.6581 206.88 98.8881 206.81 99.1481 206.81C99.4081 206.81 99.6281 206.88 99.8081 207.02C99.9881 207.14 100.078 207.32 100.078 207.56V209.03C100.298 208.61 100.598 208.22 100.978 207.86C101.358 207.5 101.808 207.21 102.328 206.99C102.848 206.75 103.438 206.63 104.098 206.63H105.148C105.368 206.63 105.548 206.72 105.688 206.9C105.848 207.08 105.928 207.29 105.928 207.53C105.928 207.79 105.848 208.01 105.688 208.19C105.548 208.35 105.368 208.43 105.148 208.43H104.098C103.438 208.43 102.798 208.61 102.178 208.97C101.578 209.33 101.088 209.83 100.708 210.47C100.328 211.11 100.138 211.89 100.138 212.81V220.22C100.138 220.42 100.038 220.6 99.8381 220.76C99.6581 220.92 99.4281 221 99.1481 221ZM112.606 221.21C111.586 221.21 110.646 220.95 109.786 220.43C108.926 219.89 108.226 219.19 107.686 218.33C107.166 217.45 106.906 216.51 106.906 215.51V212.27C106.906 211.25 107.156 210.32 107.656 209.48C108.176 208.62 108.866 207.93 109.726 207.41C110.606 206.89 111.566 206.63 112.606 206.63C113.626 206.63 114.566 206.89 115.426 207.41C116.306 207.91 117.006 208.58 117.526 209.42C118.046 210.26 118.306 211.21 118.306 212.27V215.51C118.306 216.49 118.046 217.42 117.526 218.3C117.006 219.18 116.306 219.89 115.426 220.43C114.566 220.95 113.626 221.21 112.606 221.21ZM112.606 219.41C113.306 219.41 113.936 219.23 114.496 218.87C115.056 218.49 115.506 218 115.846 217.4C116.186 216.8 116.356 216.17 116.356 215.51V212.27C116.356 211.61 116.186 210.99 115.846 210.41C115.526 209.83 115.076 209.36 114.496 209C113.936 208.62 113.306 208.43 112.606 208.43C111.906 208.43 111.276 208.62 110.716 209C110.156 209.36 109.706 209.83 109.366 210.41C109.026 210.99 108.856 211.61 108.856 212.27V215.51C108.856 216.17 109.026 216.8 109.366 217.4C109.706 218 110.156 218.49 110.716 218.87C111.296 219.23 111.926 219.41 112.606 219.41Z" fill="white"/>
</svg>
