<svg width="180" height="238" viewBox="0 0 180 238" fill="none" xmlns="http://www.w3.org/2000/svg">
<rect width="154" height="135" rx="10" transform="matrix(-1 0 0 1 167 103)" fill="#D23F3F"/>
<rect width="154" height="142" rx="16" transform="matrix(-1 0 0 1 167 0)" fill="#D23F3F"/>
<path d="M13 41H28V62H151V50H167V95.5L13 90V41Z" fill="#B03535"/>
<rect width="180" height="46" rx="9" transform="matrix(-1 0 0 1 180 80)" fill="#D23F3F"/>
<path fill-rule="evenodd" clip-rule="evenodd" d="M83.1061 80C88.2358 85.5 111.034 92.5 123.574 93.5C142.657 95.022 168.763 95.1665 179.982 94.5011C179.994 94.3356 180 94.1685 180 94L180 87C180 83.134 176.866 80 173 80L83 80C83.037 80.0291 83.0699 80.0318 83.1061 80Z" fill="#DE5C5C"/>
<rect width="123" height="48" rx="8" transform="matrix(-1 0 0 1 151 21)" fill="#0F0101"/>
<path d="M49.4712 221C49.2112 221 48.9812 220.94 48.7812 220.82C48.5812 220.68 48.4812 220.48 48.4812 220.22V199.82C48.4812 199.62 48.5512 199.45 48.6912 199.31C48.8512 199.17 49.0612 199.09 49.3212 199.07H54.8412C56.0012 199.07 57.0512 199.28 57.9912 199.7C58.9312 200.12 59.6712 200.8 60.2112 201.74C60.7512 202.66 61.0212 203.89 61.0212 205.43V205.73C61.0212 207.29 60.7412 208.54 60.1812 209.48C59.6412 210.4 58.8912 211.08 57.9312 211.52C56.9912 211.94 55.9412 212.15 54.7812 212.15H50.4612V220.22C50.4612 220.48 50.3512 220.68 50.1312 220.82C49.9312 220.94 49.7112 221 49.4712 221ZM50.4612 210.41H54.7812C56.1212 210.41 57.1612 210.04 57.9012 209.3C58.6612 208.54 59.0412 207.38 59.0412 205.82V205.49C59.0412 203.91 58.6612 202.75 57.9012 202.01C57.1612 201.27 56.1212 200.9 54.7812 200.9H50.4612V210.41ZM65.1115 221C64.8515 221 64.6215 220.92 64.4215 220.76C64.2415 220.6 64.1515 220.42 64.1515 220.22V198.86C64.1515 198.62 64.2415 198.44 64.4215 198.32C64.6215 198.18 64.8515 198.11 65.1115 198.11C65.3915 198.11 65.6215 198.18 65.8015 198.32C66.0015 198.44 66.1015 198.62 66.1015 198.86V220.22C66.1015 220.42 66.0015 220.6 65.8015 220.76C65.6215 220.92 65.3915 221 65.1115 221ZM73.2717 221.21C72.1317 221.21 71.1617 220.89 70.3617 220.25C69.5817 219.59 69.1917 218.59 69.1917 217.25C69.1917 216.15 69.4817 215.31 70.0617 214.73C70.6617 214.13 71.4817 213.72 72.5217 213.5C73.5817 213.26 74.8017 213.14 76.1817 213.14H77.7117V212.45C77.7117 211.79 77.5917 211.15 77.3517 210.53C77.1317 209.89 76.7617 209.37 76.2417 208.97C75.7417 208.55 75.0517 208.34 74.1717 208.34C73.5117 208.34 72.9717 208.41 72.5517 208.55C72.1317 208.69 71.8017 208.84 71.5617 209C71.3217 209.14 71.1217 209.21 70.9617 209.21C70.7217 209.21 70.5217 209.09 70.3617 208.85C70.2217 208.61 70.1517 208.39 70.1517 208.19C70.1517 207.91 70.3617 207.66 70.7817 207.44C71.2017 207.2 71.7217 207.01 72.3417 206.87C72.9817 206.71 73.6117 206.63 74.2317 206.63C75.5717 206.63 76.6317 206.91 77.4117 207.47C78.2117 208.01 78.7817 208.72 79.1217 209.6C79.4817 210.48 79.6617 211.42 79.6617 212.42V220.22C79.6617 220.44 79.5717 220.63 79.3917 220.79C79.2317 220.93 79.0017 221 78.7017 221C78.4617 221 78.2417 220.93 78.0417 220.79C77.8617 220.63 77.7717 220.44 77.7717 220.22V218.9C77.2717 219.5 76.6517 220.04 75.9117 220.52C75.1717 220.98 74.2917 221.21 73.2717 221.21ZM73.7517 219.56C74.4117 219.56 75.0417 219.39 75.6417 219.05C76.2417 218.71 76.7317 218.3 77.1117 217.82C77.5117 217.32 77.7117 216.85 77.7117 216.41V214.49H76.4517C75.5517 214.49 74.6917 214.55 73.8717 214.67C73.0717 214.77 72.4117 215 71.8917 215.36C71.3917 215.72 71.1417 216.29 71.1417 217.07C71.1417 217.93 71.3917 218.56 71.8917 218.96C72.4117 219.36 73.0317 219.56 73.7517 219.56ZM73.4217 203.33C73.2217 203.33 73.0417 203.24 72.8817 203.06C72.7217 202.88 72.6417 202.69 72.6417 202.49C72.6417 202.21 72.7517 202.02 72.9717 201.92L76.3317 200.09C76.4317 200.03 76.5117 200 76.5717 200C76.7917 200 76.9617 200.09 77.0817 200.27C77.2217 200.45 77.2917 200.65 77.2917 200.87C77.2917 201.17 77.1717 201.39 76.9317 201.53L73.7217 203.21C73.6817 203.23 73.6317 203.26 73.5717 203.3C73.5117 203.32 73.4617 203.33 73.4217 203.33ZM87.146 221.21C86.206 221.21 85.376 221.09 84.656 220.85C83.956 220.61 83.406 220.33 83.006 220.01C82.626 219.67 82.436 219.35 82.436 219.05C82.436 218.91 82.466 218.78 82.526 218.66C82.586 218.52 82.666 218.4 82.766 218.3C82.886 218.2 83.006 218.15 83.126 218.15C83.346 218.15 83.586 218.27 83.846 218.51C84.126 218.73 84.506 218.96 84.986 219.2C85.486 219.44 86.186 219.56 87.086 219.56C88.226 219.56 89.026 219.35 89.486 218.93C89.946 218.49 90.176 217.99 90.176 217.43C90.176 216.77 89.996 216.26 89.636 215.9C89.296 215.52 88.836 215.23 88.256 215.03C87.696 214.83 87.096 214.64 86.456 214.46C85.836 214.28 85.236 214.06 84.656 213.8C84.096 213.54 83.636 213.17 83.276 212.69C82.936 212.19 82.766 211.53 82.766 210.71C82.766 210.07 82.926 209.44 83.246 208.82C83.566 208.2 84.066 207.68 84.746 207.26C85.446 206.84 86.366 206.63 87.506 206.63C88.166 206.63 88.806 206.7 89.426 206.84C90.046 206.98 90.546 207.17 90.926 207.41C91.326 207.63 91.526 207.87 91.526 208.13C91.526 208.21 91.486 208.34 91.406 208.52C91.346 208.68 91.256 208.82 91.136 208.94C91.016 209.06 90.876 209.12 90.716 209.12C90.556 209.12 90.336 209.05 90.056 208.91C89.796 208.77 89.456 208.63 89.036 208.49C88.616 208.35 88.116 208.28 87.536 208.28C86.816 208.28 86.236 208.41 85.796 208.67C85.356 208.93 85.036 209.24 84.836 209.6C84.636 209.96 84.536 210.31 84.536 210.65C84.536 211.21 84.716 211.64 85.076 211.94C85.436 212.24 85.896 212.49 86.456 212.69C87.036 212.87 87.636 213.05 88.256 213.23C88.896 213.39 89.496 213.62 90.056 213.92C90.636 214.22 91.096 214.64 91.436 215.18C91.796 215.72 91.976 216.44 91.976 217.34C91.976 218.52 91.556 219.46 90.716 220.16C89.876 220.86 88.686 221.21 87.146 221.21ZM99.5876 221C98.0476 221 96.8676 220.65 96.0476 219.95C95.2276 219.25 94.8176 218.13 94.8176 216.59V200.81C94.8176 200.57 94.9176 200.39 95.1176 200.27C95.3376 200.13 95.5576 200.06 95.7776 200.06C96.0376 200.06 96.2676 200.13 96.4676 200.27C96.6676 200.39 96.7676 200.57 96.7676 200.81V206.81H100.668C100.868 206.81 101.028 206.89 101.148 207.05C101.268 207.21 101.328 207.4 101.328 207.62C101.328 207.84 101.268 208.03 101.148 208.19C101.028 208.35 100.868 208.43 100.668 208.43H96.7676V216.59C96.7676 217.57 96.9776 218.26 97.3976 218.66C97.8176 219.04 98.5476 219.23 99.5876 219.23H100.428C100.708 219.23 100.918 219.32 101.058 219.5C101.218 219.66 101.298 219.86 101.298 220.1C101.298 220.34 101.218 220.55 101.058 220.73C100.918 220.91 100.708 221 100.428 221H99.5876ZM104.715 202.61C104.355 202.61 104.035 202.49 103.755 202.25C103.495 201.99 103.365 201.69 103.365 201.35C103.365 201.01 103.495 200.72 103.755 200.48C104.035 200.24 104.355 200.12 104.715 200.12C105.075 200.12 105.385 200.24 105.645 200.48C105.905 200.72 106.035 201.01 106.035 201.35C106.035 201.69 105.905 201.99 105.645 202.25C105.385 202.49 105.075 202.61 104.715 202.61ZM104.685 221C104.425 221 104.195 220.92 103.995 220.76C103.815 220.6 103.725 220.42 103.725 220.22V207.56C103.725 207.32 103.815 207.14 103.995 207.02C104.195 206.88 104.425 206.81 104.685 206.81C104.965 206.81 105.195 206.88 105.375 207.02C105.575 207.14 105.675 207.32 105.675 207.56V220.22C105.675 220.42 105.575 220.6 105.375 220.76C105.195 220.92 104.965 221 104.685 221ZM114.749 221.21C113.429 221.21 112.339 220.96 111.479 220.46C110.619 219.96 109.979 219.28 109.559 218.42C109.139 217.56 108.929 216.59 108.929 215.51V212.33C108.929 211.25 109.129 210.28 109.529 209.42C109.949 208.56 110.589 207.88 111.449 207.38C112.329 206.88 113.429 206.63 114.749 206.63C115.589 206.63 116.319 206.74 116.939 206.96C117.579 207.16 118.069 207.41 118.409 207.71C118.769 208.01 118.949 208.3 118.949 208.58C118.949 208.72 118.909 208.87 118.829 209.03C118.769 209.17 118.669 209.29 118.529 209.39C118.409 209.49 118.269 209.54 118.109 209.54C117.929 209.54 117.719 209.45 117.479 209.27C117.259 209.07 116.949 208.88 116.549 208.7C116.149 208.52 115.579 208.43 114.839 208.43C113.539 208.43 112.549 208.78 111.869 209.48C111.209 210.16 110.879 211.11 110.879 212.33V215.51C110.879 216.73 111.209 217.69 111.869 218.39C112.549 219.07 113.549 219.41 114.869 219.41C115.629 219.41 116.219 219.32 116.639 219.14C117.059 218.94 117.379 218.75 117.599 218.57C117.839 218.37 118.059 218.27 118.259 218.27C118.439 218.27 118.589 218.32 118.709 218.42C118.849 218.52 118.949 218.64 119.009 218.78C119.089 218.92 119.129 219.07 119.129 219.23C119.129 219.49 118.949 219.78 118.589 220.1C118.229 220.4 117.719 220.66 117.059 220.88C116.419 221.1 115.649 221.21 114.749 221.21ZM126.756 221.21C125.736 221.21 124.796 220.95 123.936 220.43C123.076 219.89 122.376 219.19 121.836 218.33C121.316 217.45 121.056 216.51 121.056 215.51V212.27C121.056 211.25 121.306 210.32 121.806 209.48C122.326 208.62 123.016 207.93 123.876 207.41C124.756 206.89 125.716 206.63 126.756 206.63C127.776 206.63 128.716 206.89 129.576 207.41C130.456 207.91 131.156 208.58 131.676 209.42C132.196 210.26 132.456 211.21 132.456 212.27V215.51C132.456 216.49 132.196 217.42 131.676 218.3C131.156 219.18 130.456 219.89 129.576 220.43C128.716 220.95 127.776 221.21 126.756 221.21ZM126.756 219.41C127.456 219.41 128.086 219.23 128.646 218.87C129.206 218.49 129.656 218 129.996 217.4C130.336 216.8 130.506 216.17 130.506 215.51V212.27C130.506 211.61 130.336 210.99 129.996 210.41C129.676 209.83 129.226 209.36 128.646 209C128.086 208.62 127.456 208.43 126.756 208.43C126.056 208.43 125.426 208.62 124.866 209C124.306 209.36 123.856 209.83 123.516 210.41C123.176 210.99 123.006 211.61 123.006 212.27V215.51C123.006 216.17 123.176 216.8 123.516 217.4C123.856 218 124.306 218.49 124.866 218.87C125.446 219.23 126.076 219.41 126.756 219.41Z" fill="white"/>
</svg>
